<svg viewBox="0 0 32 32" xmlns="http://www.w3.org/2000/svg">
<g fill="none" fill-rule="evenodd" stroke-linecap="round" stroke-linejoin="round">
<g transform="translate(7 10)">
<path id="a" d="m8.9324 0-1.3716 1.0689c-0.71169-0.022708-2.109 0.1368-2.8662 0.41206-0.69702-0.44169-1.3098-0.92935-1.3098-0.92935l-0.85292 1.4295c-0.48822 0.26031-0.97865 0.55191-1.4151 0.93822l-1.1168-0.45582c0.67292 1.3569 1.1224 2.7138 2.3561 3.5335 1.9592-3.0943 11.064-2.8061 13.064-0.017723 1.2932-0.67348 1.7958-2.1212 2.304-3.4629-0.40099 0.13337-0.79964 0.2737-1.1958 0.42092-0.26751-0.2916-0.89862-0.73938-1.2572-0.95594-0.33978-0.62308-0.83492-1.4641-0.83492-1.4641s-0.58625 0.43588-1.2661 0.91191c-0.918-0.16948-2.0287-0.37523-2.9631-0.324-0.63526-0.52366-1.2741-1.1052-1.2741-1.1052z" fill="#F3D400"/>
<path d="m0.69618 5.3485 1.6161 3.9146c2.8072 3.7033 9.9748 3.9581 13.1 0.072l1.7369-4.0085c-0.80169 1.1874-2.106 2.0077-2.9096 2.4516-0.57102 0.31292-1.8886 0.50206-1.8886 0.50206l-3.456-1.7925-3.4787 1.7565s-1.2996-0.2088-1.8886-0.48378c-1.1874-0.63692-1.9866-1.3832-2.8288-2.4092l-0.0030462-0.0027692z" fill="#FFE953"/>
</g></g></svg>
