<svg  viewBox="0 0 32 32" fill="none" xmlns="http://www.w3.org/2000/svg">
<path fill-rule="evenodd" clip-rule="evenodd" d="M19.2081 18.797L9.44763 21.6094C9.14948 21.6954 8.86366 21.4441 8.92637 21.1511L12.4131 4.88161C12.4784 4.57738 12.91 4.52907 13.0462 4.81081L19.5022 18.1676C19.624 18.4196 19.4851 18.7166 19.208 18.7964L19.2081 18.797ZM20.8817 18.1337L13.4065 2.66782V2.66749C13.219 2.28086 12.8278 2.02576 12.3844 2.0021C11.9295 1.97629 11.5219 2.19004 11.292 2.55384L3.1848 15.3473C2.93365 15.7461 2.93857 16.2377 3.19906 16.6316L7.16204 22.6126C7.39825 22.9696 7.80747 23.1762 8.2328 23.1762C8.35337 23.1762 8.4746 23.1597 8.59382 23.1253L20.0977 19.8106C20.4501 19.709 20.7382 19.4662 20.889 19.1442C21.0393 18.8221 21.0369 18.4535 20.8822 18.1336L20.8817 18.1337Z" fill="#00BFA5"/>
</svg> 