<svg xmlns="http://www.w3.org/2000/svg" viewBox="0 0 32 32"><path fill="#76b900" d="M8.3,15.5c0-6.5,7.6-10.7,12.2-6L18.3,12c-8.1-5.4-7.4,13,0.2,6.8l2.2,2.5C16.1,26.6,8.3,22.2,8.3,15.5z"/><path fill="#76b900" d="M26.1,17.8h-0.8l-0.3-1h-1.4l-0.3,1h-0.8l1.4-4.3h0.8L26.1,17.8z M24.8,16.1l-0.5-1.6l-0.5,1.6H24.8z"/><path fill="#76b900" d="M15.76,13.51h0.71v2.33c0,0.36,0.01,0.6,0.03,0.71c0.03,0.19,0.11,0.34,0.22,0.44 c0.12,0.1,0.27,0.15,0.47,0.15c0.16,0,0.3-0.04,0.4-0.11c0.1-0.07,0.17-0.17,0.21-0.3s0.06-0.41,0.06-0.84v-2.38h0.71v2.26 c0,0.58-0.03,0.99-0.09,1.25s-0.2,0.46-0.42,0.62s-0.5,0.24-0.85,0.24c-0.37,0-0.65-0.07-0.86-0.2s-0.36-0.32-0.45-0.56 s-0.14-0.68-0.14-1.32V13.51z"/><path fill="#76b900" d="M19.31,13.51h1.3c0.33,0,0.58,0.04,0.74,0.11c0.17,0.07,0.32,0.2,0.46,0.37s0.25,0.4,0.33,0.68 s0.12,0.62,0.12,1.03c0,0.37-0.04,0.69-0.13,0.97s-0.19,0.49-0.32,0.65s-0.29,0.28-0.47,0.36c-0.18,0.08-0.42,0.12-0.7,0.12h-1.33 V13.51z M20.02,14.23v2.84h0.53c0.23,0,0.39-0.02,0.5-0.06c0.1-0.04,0.19-0.11,0.25-0.19c0.07-0.09,0.12-0.22,0.16-0.41 c0.04-0.19,0.06-0.43,0.06-0.74c0-0.32-0.02-0.57-0.07-0.75c-0.04-0.18-0.11-0.33-0.21-0.43c-0.09-0.11-0.21-0.17-0.34-0.21 c-0.1-0.03-0.29-0.04-0.58-0.04H20.02z"/></svg>